<?xml version='1.0' encoding='utf-8'?>
<svg xmlns="http://www.w3.org/2000/svg" version="1.1" id="Layer_1" x="0px" y="0px" width="1198.849px" height="1593.311px" viewBox="0 0 1198.849 1593.311" enable-background="new 0 0 1198.849 1593.311"> <rect fill="#E4F0F4" width="1198.849" height="1593.311"/> <g> <polygon fill="#B3B3B3" points="399.818,1225.436 410.378,1234.989 403.515,1259.604 392.958,1250.053 "/> <polygon fill="#B3B3B3" points="408.874,1192.939 419.435,1202.491 411.346,1231.513 400.785,1221.962 "/> <polygon fill="#B3B3B3" points="417.934,1160.443 428.495,1169.995 420.405,1199.018 409.841,1189.469 "/> <polygon fill="#B3B3B3" points="426.99,1127.95 437.551,1137.502 429.461,1166.521 418.904,1156.974 "/> <polygon fill="#B3B3B3" points="436.053,1095.455 446.61,1105.007 438.518,1134.028 427.961,1124.477 "/> <polygon fill="#B3B3B3" points="445.109,1062.959 455.667,1072.51 447.577,1101.533 437.017,1091.981 "/> <polygon fill="#B3B3B3" points="454.166,1030.466 464.729,1040.018 456.638,1069.036 446.077,1059.488 "/> <polygon fill="#B3B3B3" points="463.225,997.971 473.786,1007.521 465.693,1036.544 455.136,1026.992 "/> <polygon fill="#DBDADA" points="400.785,1221.962 411.346,1231.513 337.242,1274.299 326.681,1264.746 "/> <polygon fill="#DBDADA" points="335.74,1232.253 409.841,1189.469 420.405,1199.021 346.301,1241.803 "/> <polygon fill="#DBDADA" points="344.8,1199.758 418.904,1156.974 429.461,1166.524 355.357,1209.307 "/> <polygon fill="#DBDADA" points="353.856,1167.261 427.961,1124.477 438.518,1134.028 364.417,1176.813 "/> <polygon fill="#DBDADA" points="362.912,1134.766 437.017,1091.981 447.577,1101.535 373.476,1144.317 "/> <polygon fill="#DBDADA" points="371.976,1102.27 446.077,1059.488 456.638,1069.04 382.532,1111.82 "/> <polygon fill="#DBDADA" points="381.032,1069.773 455.136,1026.992 465.693,1036.544 391.589,1079.328 "/> <polygon fill="#DBDADA" points="390.088,1037.281 464.192,994.497 474.753,1004.047 400.649,1046.832 "/> <polygon fill="#DBDADA" points="399.147,1004.788 473.251,962.004 483.813,971.556 409.708,1014.336 "/> <path fill="#9C9C9B" d="M418.765,981.841l74.104-42.784l6.616-23.738l3.655-2.107l-6.62,23.739l-0.963,3.47l-8.093,29.021 l-0.971,3.475l-8.089,29.022l-0.967,3.475l-8.092,29.023l-0.964,3.47l-8.093,29.025l-0.967,3.471l-8.093,29.022l-0.966,3.473 l-8.09,29.023l-0.967,3.47l-8.092,29.025l-0.967,3.471l-8.089,29.022l-0.97,3.474l-8.089,29.022l-0.967,3.474l-6.864,24.617 l-3.651,2.107l6.863-24.614l-74.104,42.78l-6.738,24.176l-3.652,2.104l95.97-344.281l3.655-2.108L418.765,981.841z M346.301,1241.803l74.101-42.785l8.093-29.022l-74.104,42.785L346.301,1241.803 M364.417,1176.813l74.101-42.785l8.093-29.021 l-74.104,42.78L364.417,1176.813 M355.357,1209.307l74.104-42.782l8.093-29.025l-74.105,42.786L355.357,1209.307 M373.476,1144.317 l74.101-42.782l8.089-29.025l-74.101,42.781L373.476,1144.317 M400.649,1046.832l74.101-42.785l8.093-29.021l-74.104,42.784 L400.649,1046.832 M391.589,1079.328l74.104-42.784l8.093-29.022l-74.104,42.784L391.589,1079.328 M337.242,1274.299l74.104-42.786 l8.089-29.021l-74.104,42.785L337.242,1274.299 M409.708,1014.336l74.104-42.784l8.09-29.021l-74.102,42.784L409.708,1014.336 M382.532,1111.82l74.105-42.78l8.092-29.022l-74.104,42.781L382.532,1111.82"/> <polygon fill="#C7C6C6" points="662.22,1408.435 651.636,1405.477 645.037,1372.907 655.628,1375.862 "/> <polygon fill="#C7C6C6" points="654.7,1371.269 644.109,1368.313 636.335,1329.913 646.929,1332.868 "/> <polygon fill="#C7C6C6" points="646,1328.271 635.408,1325.319 627.637,1286.919 638.229,1289.873 "/> <polygon fill="#C7C6C6" points="637.301,1285.278 626.708,1282.326 618.937,1243.926 629.53,1246.879 "/> <polygon fill="#C7C6C6" points="628.601,1242.284 618.007,1239.331 610.237,1200.932 620.828,1203.885 "/> <polygon fill="#C7C6C6" points="619.9,1199.29 609.309,1196.337 601.536,1157.933 612.128,1160.892 "/> <polygon fill="#C7C6C6" points="611.2,1156.292 600.607,1153.343 592.836,1114.939 603.429,1117.894 "/> <polygon fill="#C7C6C6" points="602.498,1113.301 591.904,1110.346 584.136,1071.945 594.725,1074.901 "/> <polygon fill="#C7C6C6" points="593.796,1070.308 583.204,1067.35 575.436,1028.951 586.025,1031.903 "/> <polygon fill="#C7C6C6" points="585.096,1027.31 574.504,1024.358 566.732,985.956 577.325,988.91 "/> <polygon fill="#C7C6C6" points="570.039,952.907 576.396,984.316 565.804,981.365 559.447,949.955 "/> <polygon fill="#DBDADA" points="654.7,1371.269 580.596,1414.053 570.003,1411.098 644.109,1368.313 "/> <polygon fill="#DBDADA" points="646,1328.271 571.896,1371.059 561.304,1368.104 635.408,1325.319 "/> <polygon fill="#DBDADA" points="637.301,1285.278 563.196,1328.063 552.603,1325.106 626.708,1282.326 "/> <polygon fill="#DBDADA" points="628.601,1242.284 554.496,1285.068 543.904,1282.116 618.007,1239.331 "/> <polygon fill="#DBDADA" points="619.9,1199.29 545.796,1242.072 535.203,1239.117 609.309,1196.337 "/> <polygon fill="#DBDADA" points="611.2,1156.292 537.096,1199.078 526.503,1196.123 600.607,1153.343 "/> <polygon fill="#DBDADA" points="602.498,1113.301 528.396,1156.082 517.803,1153.13 591.904,1110.346 "/> <polygon fill="#DBDADA" points="593.796,1070.308 519.696,1113.088 509.104,1110.136 583.204,1067.35 "/> <polygon fill="#DBDADA" points="585.096,1027.31 510.992,1070.094 500.403,1067.142 574.504,1024.358 "/> <polygon fill="#DBDADA" points="491.699,1024.146 565.804,981.361 576.392,984.316 502.288,1027.101 "/> <polygon fill="#DBDADA" points="411.293,950.217 492.164,997.211 573.572,950.214 492.701,903.218 "/> <path fill="#B3B3B3" d="M502.288,1027.101l74.104-42.784l-6.354-31.412l3.652-2.104l6.357,31.407l0.929,4.594l7.771,38.4 l0.932,4.595l7.771,38.399l0.929,4.598l7.773,38.4l0.928,4.591l7.771,38.403l0.93,4.594l7.771,38.4l0.93,4.594l7.771,38.4 l0.929,4.596l7.772,38.398l0.929,4.596l7.771,38.398l0.928,4.595l7.771,38.399l0.93,4.595l6.592,32.569l-3.652,2.109l-6.592-32.569 l-74.104,42.784l6.472,31.983l-3.651,2.107l-92.182-455.526l3.652-2.107L502.288,1027.101z M571.896,1371.059L646,1328.271 l-7.771-38.398l-74.104,42.785L571.896,1371.059 M554.496,1285.068l74.105-42.784l-7.773-38.399l-74.103,42.781L554.496,1285.068 M563.196,1328.063l74.105-42.784l-7.771-38.399l-74.105,42.784L563.196,1328.063 M545.796,1242.074l74.104-42.784l-7.771-38.398 l-74.104,42.784L545.796,1242.074 M519.696,1113.092l74.101-42.784l-7.771-38.404l-74.101,42.786L519.696,1113.092 M528.396,1156.082l74.102-42.781l-7.772-38.399l-74.104,42.782L528.396,1156.082 M580.592,1414.053l74.107-42.784l-7.771-38.4 l-74.105,42.784L580.592,1414.053 M510.992,1070.094l74.104-42.784l-7.771-38.399l-74.104,42.785L510.992,1070.094 M537.096,1199.078l74.104-42.786l-7.771-38.395l-74.104,42.78L537.096,1199.078"/> <polygon fill="#B3B3B3" points="492.164,997.211 492.199,1009.885 573.607,962.884 573.572,950.214 "/> <polygon fill="#C7C6C6" points="421.854,959.769 411.293,950.217 315.32,1294.502 325.884,1304.05 "/> <polygon fill="#C7C6C6" points="492.164,997.211 481.575,994.259 573.753,1449.785 584.346,1452.737 "/> <polygon fill="#C7C6C6" points="411.293,950.217 411.329,962.89 492.199,1009.885 492.164,997.211 "/> <path fill="#F1B8B8" d="M457.119,584.782l10.229-17.397c2.164-10.121,7.635-54.437,10.644-57.719 c3.009-3.283,11.545-15.047,14.555-21.612c3.01-6.565,11.43,1.641,10.885,9.848c-0.552,8.208-5.174,24.784-12.397,26.699 c-2.565,14.773-4.29,56.191-8.393,62.754C478.541,593.919,457.119,584.782,457.119,584.782"/> <path fill="#758CC6" d="M504.348,222.216c-0.852-0.899-1.718-1.78-2.584-2.659c-0.855-0.864-1.717-1.714-2.58-2.557 c-1.987-1.936-3.998-3.819-6.04-5.64c-0.36-0.324-0.711-0.665-1.076-0.983c-2.384-2.093-4.807-4.09-7.262-6.018 c-0.659-0.52-1.33-1.012-1.996-1.52c-1.892-1.439-3.802-2.828-5.729-4.163c-0.733-0.507-1.463-1.018-2.2-1.51 c-2.548-1.699-5.118-3.335-7.715-4.837c-2.095-1.208-4.168-2.304-6.228-3.345c-0.594-0.3-1.187-0.583-1.78-0.872 c-1.572-0.759-3.128-1.473-4.679-2.138c-0.552-0.233-1.104-0.483-1.648-0.708c-1.455-0.595-2.901-1.138-4.336-1.651 c-0.359-0.128-0.726-0.278-1.085-0.4c-1.784-0.611-3.551-1.153-5.295-1.633c-1.03-0.283-2.046-0.524-3.062-0.762 c-0.479-0.112-0.96-0.246-1.438-0.349c-1.495-0.321-2.971-0.599-4.438-0.824c-2.233-0.344-4.413-0.538-6.566-0.657 c-0.437-0.026-0.873-0.057-1.306-0.073c-1.931-0.069-3.83-0.062-5.694,0.046c-0.321,0.02-0.636,0.062-0.96,0.083 c-1.505,0.115-2.985,0.292-4.438,0.521c-0.461,0.073-0.915,0.144-1.365,0.226c-1.672,0.309-3.313,0.669-4.913,1.131 c-0.07,0.022-0.139,0.051-0.209,0.069c-1.516,0.447-2.989,0.981-4.431,1.564c-0.422,0.171-0.841,0.353-1.26,0.536 c-1.236,0.539-2.438,1.128-3.617,1.768c-0.391,0.211-0.796,0.398-1.18,0.622l65.911-38.304c0.178-0.101,0.356-0.204,0.537-0.308 c0.207-0.116,0.433-0.201,0.643-0.314c1.177-0.638,2.381-1.227,3.614-1.764c0.23-0.103,0.446-0.236,0.677-0.332 c0.188-0.08,0.398-0.131,0.586-0.208c1.442-0.583,2.916-1.115,4.43-1.563c0.06-0.017,0.115-0.045,0.179-0.062 c0.006-0.003,0.02-0.004,0.034-0.008c1.592-0.462,3.24-0.824,4.906-1.131c0.198-0.038,0.376-0.1,0.576-0.133 c0.251-0.045,0.531-0.05,0.789-0.093c1.456-0.23,2.937-0.406,4.441-0.519c0.241-0.017,0.464-0.068,0.708-0.083 c0.08-0.003,0.171,0.003,0.254-0.002c1.857-0.108,3.76-0.117,5.691-0.047c0.188,0.007,0.37-0.014,0.558-0.003 c0.241,0.011,0.5,0.059,0.747,0.076c2.154,0.12,4.336,0.313,6.567,0.657l0.01,0.001c1.46,0.224,2.936,0.501,4.427,0.823 c0.474,0.103,0.962,0.239,1.438,0.349c0.929,0.218,1.848,0.421,2.783,0.676c0.091,0.025,0.185,0.061,0.276,0.085 c1.746,0.481,3.512,1.021,5.3,1.632c0.356,0.125,0.722,0.276,1.085,0.404c1.435,0.512,2.88,1.054,4.333,1.652 c0.195,0.078,0.383,0.138,0.576,0.216c0.353,0.148,0.715,0.338,1.071,0.49c1.551,0.665,3.111,1.378,4.682,2.138 c0.594,0.288,1.185,0.571,1.781,0.872c2.063,1.042,4.133,2.134,6.225,3.346c2.604,1.501,5.166,3.139,7.715,4.835 c0.74,0.491,1.466,1.004,2.2,1.512c1.93,1.335,3.84,2.723,5.732,4.164c0.663,0.508,1.333,0.999,1.997,1.519 c2.451,1.925,4.875,3.92,7.256,6.014c0.369,0.324,0.725,0.668,1.095,0.996c1.226,1.099,2.451,2.208,3.663,3.347l45.92-26.684 c0.188-0.107,0.376-0.218,0.564-0.323c0.217-0.124,0.447-0.209,0.671-0.328c1.271-0.697,2.577-1.33,3.91-1.914 c0.244-0.11,0.476-0.251,0.725-0.354c0.204-0.086,0.42-0.138,0.624-0.22c1.557-0.628,3.141-1.202,4.774-1.685 c0.057-0.019,0.111-0.043,0.176-0.063c0.014-0.002,0.02-0.003,0.02-0.003c1.727-0.501,3.492-0.887,5.287-1.219 c0.209-0.038,0.404-0.106,0.606-0.139c0.279-0.049,0.566-0.057,0.846-0.1c1.557-0.249,3.142-0.435,4.755-0.557 c0.252-0.021,0.502-0.073,0.761-0.091c0.091-0.003,0.189,0.004,0.279-0.001c1.989-0.117,4.027-0.125,6.096-0.053 c0.195,0.009,0.384-0.013,0.586-0.005c0.259,0.014,0.539,0.066,0.804,0.082c2.269,0.126,4.566,0.331,6.92,0.687 c0.021,0.003,0.05,0.003,0.076,0.006c0.007,0.002,0.015,0.004,0.021,0.006c0.266,0.04,0.53,0.103,0.788,0.145 c1.326,0.216,2.662,0.454,4.009,0.744c0.572,0.124,1.158,0.282,1.732,0.418c0.94,0.224,1.878,0.428,2.828,0.686 c0.096,0.026,0.194,0.065,0.292,0.091c1.857,0.509,3.729,1.081,5.622,1.728c0.306,0.107,0.626,0.239,0.935,0.35 c1.592,0.558,3.183,1.156,4.796,1.812c0.168,0.069,0.337,0.122,0.51,0.193c0.357,0.148,0.728,0.339,1.083,0.493 c1.745,0.742,3.498,1.541,5.271,2.396c0.629,0.304,1.25,0.601,1.878,0.918c2.25,1.133,4.505,2.327,6.787,3.644 c3.239,1.872,6.445,3.908,9.606,6.064c1.056,0.719,2.082,1.523,3.13,2.271c2.088,1.498,4.183,3.001,6.236,4.614 c1.222,0.962,2.408,1.994,3.615,2.996c1.838,1.52,3.674,3.042,5.468,4.652c1.257,1.121,2.479,2.297,3.715,3.458 c1.146,1.081,2.317,2.102,3.449,3.217c0.686,0.675,1.349,1.39,2.024,2.077c0.65,0.658,1.299,1.32,1.949,1.99 c2.576,2.684,5.124,5.42,7.604,8.263c0.02,0.024,0.041,0.053,0.063,0.08c2.863,3.292,5.648,6.686,8.357,10.171 c0.009,0.016,0.021,0.029,0.036,0.048c2.416,3.11,4.761,6.293,7.044,9.538c0.113,0.168,0.225,0.347,0.342,0.517 c0.58,0.824,1.119,1.677,1.684,2.509c1.377,2.025,2.771,4.038,4.091,6.108c0.35,0.543,0.67,1.105,1.013,1.652 c0.693,1.103,1.362,2.221,2.039,3.336c0.804,1.317,1.635,2.611,2.409,3.944c0.65,1.11,1.243,2.246,1.878,3.365 c0.629,1.123,1.259,2.241,1.879,3.373c0.392,0.725,0.817,1.434,1.2,2.159c1.153,2.167,2.236,4.359,3.324,6.552 c0.315,0.642,0.655,1.272,0.971,1.918c0.085,0.167,0.175,0.333,0.259,0.502c1.453,3.029,2.856,6.079,4.183,9.148 c0.16,0.364,0.293,0.736,0.453,1.103c0.433,1.02,0.831,2.043,1.25,3.07c0.727,1.757,1.486,3.514,2.165,5.284 c0.342,0.884,0.629,1.777,0.956,2.664c0.503,1.358,0.984,2.716,1.466,4.078c0.37,1.07,0.789,2.137,1.145,3.21 c0.44,1.312,0.79,2.622,1.203,3.935c0.487,1.55,0.969,3.096,1.425,4.646c0.201,0.719,0.453,1.438,0.654,2.158 c0.392,1.409,0.679,2.814,1.034,4.222c0.502,1.971,1.012,3.937,1.452,5.902c0.14,0.628,0.335,1.26,0.469,1.89 c0.58,2.713,1.083,5.418,1.536,8.118c0.069,0.422,0.118,0.841,0.188,1.264c0.306,1.894,0.606,3.79,0.852,5.673 c0.23,1.821,0.433,3.637,0.607,5.444c0.405,0.104,0.81,0.209,1.215,0.321c1.661,0.449,3.357,1.001,5.048,1.545 c0.586,0.188,1.16,0.335,1.746,0.534c2.422,0.824,4.867,1.737,7.332,2.758c0.083,0.033,0.167,0.077,0.244,0.112 c1.814,0.754,3.664,1.636,5.503,2.5c0.935,0.438,1.856,0.815,2.799,1.283c2.792,1.386,5.614,2.895,8.455,4.537 c3.205,1.848,6.367,3.859,9.504,5.953c0.53,0.356,1.062,0.7,1.592,1.059c2.988,2.041,5.948,4.195,8.875,6.445 c0.565,0.437,1.123,0.879,1.688,1.322c2.968,2.335,5.907,4.747,8.792,7.28c0.252,0.222,0.503,0.458,0.754,0.682 c2.792,2.471,5.536,5.04,8.247,7.682c0.265,0.262,0.544,0.498,0.809,0.76c0.169,0.164,0.329,0.34,0.496,0.504 c2.073,2.06,4.134,4.158,6.158,6.313c0.099,0.108,0.196,0.222,0.301,0.331c1.913,2.05,3.805,4.146,5.671,6.273 c0.173,0.205,0.361,0.396,0.536,0.601c0.229,0.258,0.439,0.542,0.663,0.803c3.024,3.504,5.984,7.095,8.854,10.788 c0.084,0.105,0.176,0.203,0.259,0.31c0.217,0.284,0.419,0.587,0.643,0.87c2.283,2.975,4.518,6.003,6.696,9.084 c0.217,0.307,0.454,0.602,0.67,0.913c0.105,0.143,0.194,0.293,0.3,0.438c2.082,2.984,4.105,6.018,6.089,9.089 c0.188,0.295,0.398,0.58,0.587,0.876c0.28,0.445,0.545,0.904,0.823,1.35c1.593,2.523,3.149,5.07,4.664,7.644 c0.238,0.401,0.497,0.789,0.733,1.193c0.085,0.151,0.168,0.309,0.251,0.459c1.719,2.954,3.381,5.939,4.994,8.949 c0.133,0.247,0.272,0.484,0.404,0.733c0.265,0.497,0.503,1.007,0.768,1.508c1.25,2.393,2.472,4.8,3.659,7.221 c0.244,0.504,0.517,1,0.761,1.508c0.146,0.306,0.279,0.614,0.419,0.917c1.467,3.063,2.884,6.146,4.231,9.244 c0.042,0.1,0.09,0.194,0.133,0.29c0.147,0.333,0.271,0.674,0.413,1.007c1.2,2.798,2.345,5.608,3.449,8.43 c0.173,0.458,0.383,0.911,0.558,1.367c0.146,0.383,0.266,0.77,0.411,1.154c1.264,3.334,2.48,6.673,3.597,10.025 c0.021,0.063,0.049,0.128,0.07,0.189c0.063,0.198,0.118,0.397,0.182,0.595c1.145,3.458,2.191,6.921,3.169,10.385 c0.127,0.433,0.28,0.866,0.398,1.295c0.063,0.239,0.104,0.475,0.176,0.711c1.102,4.022,2.079,8.041,2.952,12.052 c0.077,0.352,0.182,0.708,0.259,1.063c0.111,0.52,0.194,1.038,0.3,1.56c0.329,1.583,0.622,3.16,0.908,4.738 c0.201,1.087,0.405,2.177,0.587,3.261c0.265,1.624,0.503,3.237,0.726,4.854c0.111,0.767,0.252,1.535,0.349,2.296 c0.028,0.202,0.036,0.401,0.056,0.602c0.441,3.467,0.776,6.911,1.02,10.336c0.05,0.729,0.085,1.454,0.134,2.178 c0.202,3.518,0.343,7.018,0.327,10.472c-0.104,37.972-13.512,64.698-35.137,77.262l-65.904,38.304 c21.624-12.566,35.03-39.292,35.135-77.264c0.015-3.455-0.125-6.956-0.329-10.47c-0.049-0.728-0.083-1.453-0.139-2.181 c-0.244-3.423-0.573-6.869-1.012-10.336c-0.119-0.964-0.274-1.934-0.406-2.903c-0.229-1.611-0.461-3.224-0.732-4.84 c-0.182-1.095-0.379-2.191-0.58-3.289c-0.286-1.567-0.586-3.137-0.907-4.712c-0.181-0.876-0.37-1.754-0.566-2.633 c-0.865-4.008-1.85-8.023-2.952-12.043c-0.182-0.672-0.378-1.345-0.567-2.015c-0.984-3.471-2.03-6.939-3.176-10.402 c-0.085-0.253-0.162-0.504-0.245-0.755c-1.118-3.352-2.333-6.697-3.596-10.032c-0.321-0.842-0.644-1.681-0.971-2.519 c-1.104-2.829-2.256-5.646-3.455-8.453c-0.182-0.421-0.35-0.847-0.539-1.268c-1.347-3.105-2.771-6.191-4.239-9.262 c-0.383-0.802-0.774-1.601-1.165-2.4c-1.194-2.432-2.416-4.852-3.679-7.255c-0.385-0.738-0.769-1.48-1.16-2.217 c-1.613-3.009-3.267-5.994-4.991-8.948c-0.323-0.563-0.665-1.117-0.993-1.677c-1.515-2.566-3.071-5.106-4.657-7.624 c-0.476-0.745-0.941-1.489-1.416-2.229c-1.978-3.071-4.002-6.106-6.09-9.09c-0.313-0.453-0.642-0.897-0.963-1.347 c-2.178-3.08-4.405-6.108-6.696-9.08c-0.301-0.395-0.601-0.799-0.901-1.194c-2.876-3.693-5.837-7.282-8.859-10.786 c-0.405-0.464-0.797-0.937-1.201-1.399c-1.851-2.116-3.729-4.197-5.635-6.234c-0.111-0.124-0.224-0.251-0.336-0.374 c-2.024-2.152-4.078-4.247-6.152-6.305c-0.433-0.432-0.879-0.849-1.319-1.277c-2.702-2.636-5.439-5.198-8.226-7.665 c-0.249-0.229-0.508-0.467-0.767-0.694c-2.885-2.529-5.816-4.939-8.783-7.271c-0.567-0.444-1.132-0.893-1.697-1.329 c-2.926-2.248-5.88-4.402-8.868-6.443c-0.531-0.36-1.062-0.705-1.592-1.058c-3.143-2.093-6.299-4.107-9.504-5.956 c-2.841-1.641-5.662-3.147-8.455-4.535c-0.942-0.469-1.864-0.843-2.799-1.283c-1.839-0.862-3.688-1.744-5.503-2.5 c-2.55-1.061-5.076-2.019-7.576-2.867c-0.588-0.202-1.166-0.348-1.746-0.535c-2.102-0.679-4.202-1.337-6.264-1.868 c-0.349-3.678-0.857-7.392-1.458-11.115c-0.071-0.424-0.118-0.844-0.195-1.264c-0.552-3.326-1.249-6.667-1.998-10.011 c-0.439-1.96-0.949-3.924-1.451-5.89c-0.539-2.133-1.083-4.265-1.698-6.397c-0.446-1.544-0.928-3.083-1.41-4.627 c-0.747-2.391-1.527-4.782-2.359-7.167c-0.476-1.353-0.957-2.706-1.46-4.06c-0.991-2.667-2.03-5.323-3.128-7.975 c-0.42-1.015-0.81-2.034-1.243-3.046c-1.549-3.611-3.169-7.201-4.894-10.755c-0.314-0.651-0.663-1.29-0.986-1.939 c-1.443-2.921-2.952-5.822-4.51-8.691c-0.621-1.133-1.25-2.255-1.885-3.377c-1.383-2.46-2.814-4.893-4.279-7.304 c-0.679-1.115-1.349-2.235-2.04-3.339c-1.655-2.625-3.365-5.203-5.104-7.76c-0.564-0.832-1.11-1.688-1.682-2.512 c-2.402-3.439-4.874-6.815-7.431-10.104c-2.702-3.482-5.495-6.877-8.351-10.169c-2.499-2.87-5.068-5.636-7.673-8.344 c-0.644-0.667-1.292-1.328-1.942-1.984c-1.794-1.821-3.638-3.563-5.479-5.298c-1.23-1.161-2.459-2.333-3.708-3.455 c-1.802-1.609-3.631-3.132-5.469-4.653c-1.207-1-2.395-2.034-3.615-2.996c-2.053-1.613-4.147-3.114-6.235-4.612 c-1.049-0.75-2.073-1.554-3.128-2.273c-3.172-2.156-6.37-4.193-9.609-6.064c-2.283-1.317-4.545-2.509-6.787-3.641 c-0.635-0.318-1.256-0.617-1.878-0.921c-1.773-0.854-3.526-1.654-5.275-2.396c-0.53-0.225-1.064-0.47-1.595-0.686 c-1.607-0.655-3.199-1.25-4.783-1.809c-0.314-0.111-0.636-0.246-0.949-0.352c-1.893-0.646-3.764-1.217-5.618-1.729 c-1.052-0.288-2.085-0.531-3.125-0.777c-0.573-0.137-1.156-0.297-1.725-0.419c-1.352-0.29-2.686-0.528-4.012-0.746 c-0.262-0.042-0.527-0.104-0.785-0.143c-0.036-0.003-0.071-0.007-0.105-0.012c-2.35-0.356-4.647-0.56-6.914-0.688 c-0.467-0.025-0.935-0.058-1.396-0.073c-1.823-0.066-3.61-0.039-5.379,0.043c0.08,0.078,0.15,0.158,0.227,0.234 c0.866,0.875,1.725,1.751,2.576,2.645c0.963,1.013,1.914,2.042,2.863,3.081c0.838,0.918,1.676,1.834,2.5,2.77 c0.342,0.389,0.698,0.759,1.037,1.151c1.113,1.283,2.216,2.581,3.31,3.9l-65.907,38.3c-1.428-1.717-2.887-3.394-4.354-5.055 c-0.824-0.935-1.655-1.851-2.493-2.764C506.261,224.256,505.312,223.227,504.348,222.216"/> <path fill="#FFFFFF" d="M617.777,195.377c-51.173-29.542-93.951-12.288-103.719,37.734c-13.92-16.795-29.875-30.956-46.891-40.78 c-54.274-31.336-98.42-6.178-98.599,56.186c-0.004,1.543,0.053,3.121,0.105,4.7c-9.3-9.732-19.411-17.977-30.069-24.131 c-44.181-25.507-80.127-5.027-80.268,45.743c-0.146,50.804,35.562,112.651,79.747,138.158L753.76,652.977 c66.543,38.419,120.627,7.56,120.845-68.868c0.217-76.462-53.521-169.543-120.063-207.961 c-11.192-6.464-22.036-10.936-32.343-13.59C716.131,298.822,671.78,226.558,617.777,195.377"/> <path fill="#F1B8B8" d="M532.927,642.592c0,0,24.669-9.279,26.585-12.562c1.917-3.284,20.518-43.496,25.168-48.147 c4.65-4.648,1.641-9.301,12.854-10.941c11.222-1.643,16.688-12.584,19.015-9.3c2.325,3.281,3.561,14.361-8.206,21.61 c-8.207,4.786-11.216,5.745-11.216,5.745s-20.518,52.523-25.304,56.215c-4.787,3.694-28.757,17.505-28.757,17.505L532.927,642.592z "/> <path fill="#EE9F4B" d="M463.892,911.839c0,0,10.376-5.207,12.219,0.845c1.846,6.053,0.307,12.31-4.615,14.669 c-4.923,2.359-9.95,6.055-11.49,8.823c-1.54,2.771-6.567,11.052-16.517,6.653c-6.054-2.956-4.414-13.731-3.588-16.397 c0.816-2.668,2.799-10.848,3.037-14.041C456.724,912.787,463.892,911.839,463.892,911.839"/> <path fill="#3D3E51" d="M443,732.48c0,0,7.363,55.667,6.13,99.161c-3.694,37.755-8.002,78.58-8.002,78.58 s7.185,11.488,21.953,5.133c8.415-36.729,22.568-93.558,22.568-115.444v-21.884L443,732.48z"/> <path fill="#EE9F4B" d="M507.504,945.124c0,0,0.716,7.433,12.614,8.388c11.901,0.956,20.108,0.409,20.385,8.48 c0.272,8.073-7.936,12.175-13.134,12.722c-5.194,0.55-10.942-1.096-17.505,1.093c-6.566,2.189-22.298,5.336-26.4-2.733 c-2.188-5.062,2.946-21.299,4.14-29.525L507.504,945.124z"/> <path fill="#454A64" d="M443,732.48c0,0-1.938,33.236,16.664,40.62l18.601,7.388c0,0,5.743,54.983,6.019,64.56 c0.271,9.573,0,95.471,0,95.471c7.112,9.029,24.071,6.839,26.536,1.915c5.195-74.679,12.667-170.034,5.925-200.732L443,732.48z"/> <path fill="#DBDADA" d="M477.857,639.024c8.205,4.822,18.053,9.062,26.806,8.787c8.755-0.274,17.923-3.147,25.304-6.701 c6.567,2.599,14.09,9.71,12.994,24.482c-6.703,3.147-28.311,11.764-28.726,13.679c-0.405,1.917-0.68,37.887,1.236,43.634 c1.914,5.744,7.764,16.959-5.007,25.028c-12.778,8.071-37.258,3.009-44.917,0c-7.66-3.008-22.708-11.215-23.936-18.873 c-1.232-7.66-1.641-52.798-3.834-62.373c-2.186-9.574-4.377-28.04-1.093-38.16c3.286-10.123,9.622-22.714,9.622-22.714 L477.857,639.024z"/> <path fill="#F1B8B8" d="M467.188,632.321c0.251-0.136,0.481-0.261,0.715-0.386l-7.796-29.773l26.653-16.237 c0,0,7.817,7.001,10.484,17.519c3.487,8.154,11.385,18.927-5.743,28.466c-5.132,2.872-5.848,11.08-5.848,11.08l1.896,0.967 c0.335,1.803-5.931,5.087-13.524,3.307C466.434,645.486,457.67,637.833,467.188,632.321"/> <path fill="#3D374B" d="M486.575,614.984l-6.156-4.717c0,0-6.361-1.027-7.694,3.897c-0.51,3.18,2.667,5.128,5.541,5.54 c-0.207,8.413-4.821,13.13-11.078,12.617c-4.001-1.95-22.163-9.129-20.21-24.106c-1.848-5.128-3.736-17.953,19.728-28.928 c7.66-3.078,13.511-6.464,18.126-3.795c6.669,5.333,0.413,14.771-4.105,18.874c-2.562,2.461,1.851,12.823,8.002,17.644 L486.575,614.984z"/> </g> </svg>